<?xml version="1.0" standalone="no"?>
<!DOCTYPE svg PUBLIC "-//W3C//DTD SVG 20010904//EN"
 "http://www.w3.org/TR/2001/REC-SVG-20010904/DTD/svg10.dtd">
<svg version="1.0" xmlns="http://www.w3.org/2000/svg"
 width="1000.000000pt" height="1000.000000pt" viewBox="0 0 1000.000000 1000.000000"
 preserveAspectRatio="xMidYMid meet">
<metadata>
Created by potrace 1.14, written by Peter Selinger 2001-2017
</metadata>
<g transform="translate(0.000000,1000.000000) scale(0.100000,-0.100000)"
fill="#000000" stroke="none">
<path d="M2415 8139 c-100 -13 -198 -67 -325 -177 -139 -121 -216 -235 -272
-407 -19 -59 -23 -91 -23 -205 0 -131 2 -139 39 -245 50 -142 52 -146 135
-241 76 -89 173 -167 260 -211 73 -36 149 -89 229 -160 205 -182 557 -411 752
-490 77 -31 291 -101 380 -124 41 -11 126 -22 188 -26 61 -3 112 -9 112 -12 0
-3 -11 -24 -25 -46 -13 -22 -31 -53 -41 -70 -9 -16 -67 -97 -128 -180 -196
-262 -229 -330 -227 -470 1 -71 5 -88 37 -150 68 -132 138 -199 226 -216 70
-13 455 -13 594 1 200 20 362 75 454 156 15 13 71 33 143 52 l117 30 0 -26 c0
-37 44 -202 76 -286 l27 -69 -54 -46 c-171 -146 -459 -448 -620 -651 -236
-298 -440 -633 -554 -910 -14 -36 -32 -78 -39 -95 -11 -24 -52 -152 -72 -222
-2 -9 -15 -7 -46 7 -24 11 -51 20 -60 20 -9 0 -36 17 -60 38 -24 20 -59 48
-78 62 l-33 26 18 53 c22 67 15 77 -9 10 -10 -27 -21 -49 -25 -47 -83 39 -111
56 -122 73 -17 27 -146 140 -201 177 -23 15 -48 38 -57 51 -27 40 -209 241
-231 255 -11 7 -20 17 -20 22 0 22 -180 266 -208 282 -23 14 -30 27 -35 60 -3
24 -35 104 -71 178 -201 420 -283 753 -292 1175 -5 227 -15 290 -56 339 -41
50 -68 62 -215 95 -70 16 -204 52 -297 80 -93 28 -178 51 -189 51 -47 0 -104
-27 -143 -66 -50 -52 -60 -95 -69 -294 -6 -116 -4 -157 9 -206 15 -58 13 -118
-4 -129 -4 -2 -30 -1 -59 4 -105 17 -228 -49 -246 -131 l-7 -30 -62 7 c-88 9
-147 -8 -196 -57 -41 -42 -63 -97 -62 -155 2 -47 40 -269 59 -336 18 -64 74
-130 121 -142 15 -3 44 -10 64 -16 l37 -10 -28 -45 c-35 -55 -65 -170 -64
-244 1 -30 11 -93 23 -140 54 -212 176 -376 358 -481 l53 -31 -24 -31 c-13
-18 -29 -53 -36 -78 -11 -39 -10 -54 3 -98 32 -108 171 -324 289 -448 73 -76
219 -182 279 -202 33 -11 35 -15 51 -89 32 -144 107 -262 231 -359 74 -58 187
-119 241 -129 26 -5 33 -12 43 -47 14 -53 55 -93 195 -191 60 -42 121 -93 137
-114 29 -41 72 -66 130 -77 19 -4 61 -21 92 -38 342 -191 384 -209 508 -213
82 -3 136 4 184 22 8 3 17 -14 25 -47 23 -87 64 -122 190 -163 178 -58 324
-93 351 -86 16 5 35 1 55 -11 17 -9 57 -24 90 -33 80 -20 309 -57 338 -54 12
1 47 -3 77 -10 78 -16 359 -34 395 -24 17 5 45 5 65 -1 42 -11 230 -3 283 13
45 13 115 73 123 104 5 22 7 22 150 -27 138 -46 148 -48 192 -37 26 6 58 19
72 28 18 11 49 16 105 17 102 1 234 34 343 86 184 88 303 272 264 410 -8 29
-6 40 9 60 30 39 42 112 35 202 -4 45 -10 92 -12 103 -5 18 5 28 53 58 69 43
96 66 144 126 48 59 64 92 81 171 14 61 14 72 -3 139 -10 40 -16 83 -13 96 4
15 32 41 73 69 l66 45 20 -27 c72 -99 160 -165 315 -234 176 -78 278 -102 445
-103 224 -1 283 9 393 70 98 54 127 78 175 147 93 131 198 472 241 782 4 22 8
51 11 65 34 165 56 752 36 955 -12 124 -56 311 -86 361 -9 16 -14 21 -11 12
66 -218 68 -709 5 -1173 -39 -287 -83 -473 -161 -667 -65 -164 -110 -222 -229
-289 -74 -43 -97 -51 -175 -61 -125 -16 -295 -13 -379 6 -94 22 -287 100 -354
143 -72 46 -154 125 -204 196 -22 31 -43 57 -46 57 -3 -1 -15 -15 -26 -32 -18
-29 -107 -98 -125 -98 -4 0 -18 36 -31 81 -50 168 -163 227 -309 162 -25 -11
-66 -30 -91 -41 l-47 -20 -12 27 c-9 18 -12 80 -11 206 l2 181 -108 43 c-195
79 -510 245 -613 323 -87 66 -162 119 -165 116 -17 -19 -64 -135 -113 -278
-97 -284 -148 -541 -159 -797 l-6 -141 -31 -6 c-23 -4 -228 -1 -289 3 -10 1
-1 182 14 306 35 291 151 711 264 960 7 17 25 57 40 90 42 96 124 252 172 328
l24 39 72 -70 c303 -294 699 -530 1118 -666 l86 -28 7 -82 c4 -44 7 -165 7
-268 0 -111 4 -190 9 -193 6 -4 19 -4 29 0 22 7 37 64 81 324 17 96 31 176 33
177 1 1 31 -4 67 -12 36 -7 74 -14 86 -14 19 0 22 -7 26 -83 6 -93 28 -154 76
-208 27 -30 90 -70 133 -82 9 -3 31 -32 49 -64 71 -126 215 -227 370 -259 58
-12 103 -14 195 -9 66 4 135 7 152 7 122 -1 223 346 278 958 13 140 16 246 12
435 -3 138 -8 262 -11 278 -3 15 -11 55 -17 89 -12 69 -41 134 -73 161 -65 58
-198 88 -366 83 -129 -4 -193 -14 -295 -48 -86 -29 -114 -45 -136 -82 -19 -32
-20 -33 -130 -45 -61 -6 -163 -15 -225 -18 l-114 -6 -1 184 c0 101 -2 207 -4
234 -2 28 -6 109 -10 180 -10 212 -39 521 -71 742 l-6 41 39 -9 c223 -50 431
-154 571 -284 94 -87 104 -105 107 -189 6 -147 94 -276 201 -293 22 -3 61 -21
87 -40 118 -80 267 -85 420 -13 53 25 217 173 217 196 0 8 4 14 8 14 23 0 71
147 78 240 20 247 -140 444 -377 465 -51 4 -198 -21 -209 -36 -14 -18 -49 -19
-62 -1 -7 10 -40 36 -72 56 -250 159 -602 256 -974 269 -56 2 -104 6 -105 8
-2 2 -14 47 -27 99 -70 286 -187 585 -275 705 -42 58 -45 68 -31 121 32 120
108 230 204 296 60 42 182 108 197 108 6 0 20 9 30 20 17 19 17 21 -10 59 -67
98 -311 289 -423 332 -122 46 -222 78 -278 88 -137 25 -346 14 -494 -26 -68
-18 -152 -62 -143 -76 4 -6 1 -7 -8 -1 -8 4 -18 9 -24 11 -5 1 -35 8 -65 16
-131 35 -270 49 -405 41 -71 -4 -133 -7 -136 -6 -19 4 -215 -41 -291 -67 -166
-56 -343 -173 -469 -309 -106 -114 -209 -315 -209 -406 l0 -31 -108 3 c-228 7
-470 -61 -571 -161 -71 -69 -84 -106 -79 -209 5 -71 10 -96 33 -135 31 -54
139 -161 233 -231 75 -55 64 -63 -40 -31 -125 38 -302 144 -393 234 -117 116
-175 199 -230 330 -52 123 -39 179 56 245 68 46 107 97 163 214 47 98 47 233
-1 328 -16 32 -60 78 -75 78 -7 0 -6 5 2 15 18 22 6 103 -22 153 -112 200
-385 341 -603 311z m216 -62 c56 -20 194 -97 225 -127 16 -14 38 -39 49 -54
11 -16 32 -44 48 -64 15 -19 30 -47 33 -61 3 -14 10 -41 15 -60 5 -19 7 -36 6
-38 -2 -1 -20 2 -41 8 -34 9 -44 7 -99 -21 -43 -22 -68 -29 -87 -25 -34 7 -45
-14 -23 -44 13 -19 13 -27 -1 -68 -9 -26 -16 -55 -16 -64 0 -26 -35 -41 -88
-37 l-47 3 0 -47 c0 -39 -5 -53 -30 -78 -61 -60 -158 -79 -251 -47 -17 5 -40
7 -50 3 -25 -10 -6 -26 85 -73 41 -21 79 -46 84 -55 18 -28 -8 -67 -61 -91
-40 -19 -63 -22 -154 -21 -81 1 -108 -2 -112 -12 -10 -26 36 -39 134 -39 84 0
102 3 152 28 57 28 98 75 98 112 0 10 -9 32 -20 50 l-21 33 38 12 c88 29 136
70 150 129 8 31 13 37 46 42 35 5 38 4 54 -29 27 -55 62 -76 111 -67 47 8 122
57 122 80 0 24 -32 17 -70 -15 -42 -37 -69 -38 -101 -4 -53 56 -18 199 67 274
32 28 43 32 79 28 42 -5 87 -36 108 -73 6 -11 16 -47 23 -79 31 -148 -45 -313
-194 -422 -42 -31 -127 -106 -188 -165 -92 -89 -125 -114 -189 -144 -71 -34
-86 -37 -169 -38 -102 -1 -141 12 -208 65 -136 107 -248 288 -278 449 -35 183
22 411 142 567 85 110 244 234 341 267 105 35 209 39 288 12z m3582 -277 c95
-9 290 -65 371 -107 69 -35 224 -151 296 -221 l75 -74 -40 -12 c-47 -15 -161
-84 -223 -134 -83 -68 -193 -271 -174 -320 6 -16 4 -16 -19 0 -25 16 -26 16
-21 -7 2 -13 13 -33 23 -44 11 -11 36 -49 57 -83 20 -35 42 -72 49 -83 7 -11
16 -29 21 -40 43 -91 72 -160 92 -215 13 -36 27 -70 32 -76 5 -7 11 -29 13
-49 3 -20 8 -41 11 -46 8 -13 43 -135 54 -189 5 -25 12 -55 16 -67 6 -20 3
-23 -23 -23 -16 0 -54 -4 -84 -10 -30 -5 -97 -16 -149 -25 -133 -23 -290 -85
-351 -139 -47 -41 -81 -101 -77 -137 4 -42 58 -83 98 -75 14 3 39 8 55 11 17
3 41 7 55 10 92 19 170 27 270 27 123 1 259 -9 277 -20 6 -4 14 -45 17 -92 4
-46 9 -87 12 -91 2 -4 6 -31 9 -61 2 -29 7 -74 10 -101 3 -26 7 -69 9 -95 5
-65 18 -210 22 -252 8 -81 16 -328 16 -493 0 -125 4 -177 12 -177 8 0 8 -2 0
-8 -7 -4 -11 -38 -11 -82 0 -137 -18 -514 -28 -580 -3 -19 -12 -102 -21 -185
-9 -82 -17 -157 -19 -165 -1 -8 -5 -44 -10 -80 -11 -97 -33 -192 -35 -155 -27
523 -167 999 -397 1346 -195 297 -448 498 -753 599 -130 43 -212 54 -405 54
-124 0 -192 -5 -250 -17 -116 -26 -155 -37 -155 -45 0 -4 -14 -8 -32 -9 l-32
-2 56 57 c240 247 351 353 405 387 47 30 63 46 63 63 0 12 -5 22 -12 22 -38 0
-173 -116 -384 -330 -278 -282 -317 -309 -509 -360 -100 -27 -260 -40 -477
-40 -293 0 -314 5 -390 89 -47 52 -118 185 -118 220 0 23 19 28 38 9 30 -30
461 -13 587 22 172 48 294 147 538 434 54 63 138 155 187 205 49 49 105 115
125 146 46 71 65 158 45 205 -15 37 -107 113 -127 106 -7 -3 -13 0 -13 7 0 17
-64 54 -285 168 -295 151 -324 165 -506 232 -226 84 -265 93 -403 96 -168 4
-274 -24 -314 -80 -25 -36 -34 -22 -30 45 5 78 31 117 118 176 101 69 241 101
439 101 235 -1 294 -13 546 -119 32 -13 95 -49 138 -78 43 -30 80 -54 83 -54
3 0 33 -19 67 -42 34 -24 71 -48 82 -54 30 -16 76 -45 136 -84 124 -81 281
-138 291 -105 3 9 -158 94 -187 99 -5 1 -23 10 -40 20 -43 27 -184 115 -225
141 -19 12 -64 40 -98 61 -35 22 -91 57 -125 79 -78 51 -200 106 -297 135 -41
12 -82 24 -90 27 -21 8 -30 10 -68 11 -32 2 -33 3 -27 35 24 120 123 300 220
400 17 17 29 34 27 39 -1 4 5 8 13 8 8 0 20 9 27 20 7 11 16 20 20 20 5 0 36
21 70 46 162 119 349 185 588 208 175 16 260 13 412 -18 160 -33 183 -34 206
-13 10 9 25 17 33 17 8 0 34 7 58 16 58 20 129 34 211 41 36 3 67 7 69 9 7 6
58 4 164 -6z m331 -896 c3 -8 2 -12 -4 -9 -6 3 -10 10 -10 16 0 14 7 11 14 -7z
m-3004 -284 c0 -5 -7 -10 -15 -10 -8 0 -15 5 -15 10 0 6 7 10 15 10 8 0 15 -4
15 -10z m340 0 c0 -5 -4 -10 -10 -10 -5 0 -10 5 -10 10 0 6 5 10 10 10 6 0 10
-4 10 -10z m-255 -9 c7 -12 -12 -24 -25 -16 -11 7 -4 25 10 25 5 0 11 -4 15
-9z m80 -20 c7 -12 -12 -24 -25 -16 -11 7 -4 25 10 25 5 0 11 -4 15 -9z m-265
-26 c0 -8 -7 -15 -15 -15 -16 0 -20 12 -8 23 11 12 23 8 23 -8z m350 0 c0 -8
-6 -15 -14 -15 -17 0 -28 14 -19 24 12 12 33 6 33 -9z m75 -16 c10 -15 -1 -23
-20 -15 -9 3 -13 10 -10 16 8 13 22 13 30 -1z m-260 -19 c3 -5 -1 -10 -9 -10
-9 0 -16 5 -16 10 0 6 4 10 9 10 6 0 13 -4 16 -10z m343 -8 c2 -7 -3 -12 -12
-12 -9 0 -16 7 -16 16 0 17 22 14 28 -4z m-260 -20 c2 -7 -6 -12 -17 -12 -21
0 -27 11 -14 24 9 9 26 2 31 -12z m342 3 c0 -8 -7 -15 -15 -15 -16 0 -20 12
-8 23 11 12 23 8 23 -8z m-265 -15 c11 -17 -5 -32 -21 -19 -7 6 -11 15 -8 20
7 12 21 11 29 -1z m350 0 c3 -6 -1 -13 -10 -16 -19 -8 -30 0 -20 15 8 14 22
14 30 1z m-615 -24 c0 -8 -4 -17 -9 -21 -12 -7 -24 12 -16 25 9 15 25 12 25
-4z m343 -12 c-4 -10 -9 -12 -15 -6 -12 12 -1 35 12 27 5 -3 6 -13 3 -21z
m352 16 c3 -6 -1 -13 -10 -16 -19 -8 -30 0 -20 15 8 14 22 14 30 1z m-615 -24
c0 -8 -4 -17 -9 -21 -12 -7 -24 12 -16 25 9 15 25 12 25 -4z m350 -7 c0 -5 -7
-9 -15 -9 -15 0 -20 12 -9 23 8 8 24 -1 24 -14z m348 3 c2 -7 -6 -12 -17 -12
-21 0 -27 11 -14 24 9 9 26 2 31 -12z m-268 -16 c0 -8 -4 -17 -9 -21 -12 -7
-24 12 -16 25 9 15 25 12 25 -4z m345 3 c10 -15 -1 -23 -20 -15 -9 3 -13 10
-10 16 8 13 22 13 30 -1z m-610 -20 c10 -15 -1 -23 -20 -15 -9 3 -13 10 -10
16 8 13 22 13 30 -1z m345 -3 c0 -8 -4 -17 -9 -21 -12 -7 -24 12 -16 25 9 15
25 12 25 -4z m-268 -38 c-15 -15 -26 -4 -18 18 5 13 9 15 18 6 9 -9 9 -15 0
-24z m348 17 c0 -8 -7 -15 -15 -15 -16 0 -20 12 -8 23 11 12 23 8 23 -8z m260
5 c0 -5 -2 -10 -4 -10 -3 0 -8 5 -11 10 -3 6 -1 10 4 10 6 0 11 -4 11 -10z
m-525 -40 c-5 -8 -11 -8 -17 -2 -6 6 -7 16 -3 22 5 8 11 8 17 2 6 -6 7 -16 3
-22z m350 20 c3 -6 -1 -13 -10 -16 -19 -8 -30 0 -20 15 8 14 22 14 30 1z
m-695 -16 c0 -14 -3 -14 -15 -4 -8 7 -15 14 -15 16 0 2 7 4 15 4 8 0 15 -7 15
-16z m79 -20 c-14 -17 -30 -9 -23 11 3 7 12 11 20 8 11 -4 12 -9 3 -19z m346
-4 c-5 -8 -11 -8 -17 -2 -6 6 -7 16 -3 22 5 8 11 8 17 2 6 -6 7 -16 3 -22z
m353 12 c2 -7 -3 -12 -12 -12 -9 0 -16 7 -16 16 0 17 22 14 28 -4z m-268 -16
c0 -8 -4 -17 -9 -21 -12 -7 -24 12 -16 25 9 15 25 12 25 -4z m345 -4 c0 -18
-20 -15 -23 4 -3 10 1 15 10 12 7 -3 13 -10 13 -16z m-693 -7 c0 -5 -5 -11
-11 -13 -6 -2 -11 4 -11 13 0 9 5 15 11 13 6 -2 11 -8 11 -13z m428 -15 c0
-21 -15 -27 -25 -10 -7 12 2 30 16 30 5 0 9 -9 9 -20z m350 6 c0 -8 -4 -17 -9
-21 -12 -7 -24 12 -16 25 9 15 25 12 25 -4z m-610 -27 c0 -5 -7 -9 -15 -9 -15
0 -20 12 -9 23 8 8 24 -1 24 -14z m342 -11 c-9 -9 -15 -9 -24 0 -10 10 -10 15
2 22 20 12 38 -6 22 -22z m348 18 c0 -8 -4 -17 -9 -21 -12 -7 -24 12 -16 25 9
15 25 12 25 -4z m-265 -36 c-5 -8 -11 -8 -17 -2 -6 6 -7 16 -3 22 5 8 11 8 17
2 6 -6 7 -16 3 -22z m345 4 c0 -16 -16 -19 -25 -4 -8 13 4 32 16 25 5 -4 9
-13 9 -21z m-690 0 c0 -17 -22 -14 -28 4 -2 7 3 12 12 12 9 0 16 -7 16 -16z
m75 -24 c-5 -8 -11 -8 -17 -2 -6 6 -7 16 -3 22 5 8 11 8 17 2 6 -6 7 -16 3
-22z m347 -2 c-15 -15 -26 -4 -18 18 5 13 9 15 18 6 9 -9 9 -15 0 -24z m-682
12 c0 -5 -4 -10 -9 -10 -6 0 -13 5 -16 10 -3 6 1 10 9 10 9 0 16 -4 16 -10z
m1025 0 c3 -5 -1 -10 -10 -10 -9 0 -13 5 -10 10 3 6 8 10 10 10 2 0 7 -4 10
-10z m-604 -33 c-13 -13 -31 0 -24 19 4 11 8 12 20 3 9 -8 10 -16 4 -22z m344
3 c-5 -8 -11 -8 -17 -2 -6 6 -7 16 -3 22 5 8 11 8 17 2 6 -6 7 -16 3 -22z
m-685 11 c0 -14 -18 -23 -30 -16 -6 4 -8 11 -5 16 8 12 35 12 35 0z m770 -27
c0 -16 -16 -19 -25 -4 -8 13 4 32 16 25 5 -4 9 -13 9 -21z m-695 7 c7 -12 -12
-24 -25 -16 -11 7 -4 25 10 25 5 0 11 -4 15 -9z m355 0 c0 -14 -18 -23 -30
-16 -6 4 -8 11 -5 16 8 12 35 12 35 0z m73 -32 c-17 -17 -37 -1 -22 17 8 10
15 12 23 4 7 -7 7 -13 -1 -21z m347 5 c0 -9 -5 -14 -12 -12 -18 6 -21 28 -4
28 9 0 16 -7 16 -16z m-610 -14 c0 -5 -2 -10 -4 -10 -3 0 -8 5 -11 10 -3 6 -1
10 4 10 6 0 11 -4 11 -10z m348 -2 c-6 -18 -28 -21 -28 -4 0 9 7 16 16 16 9 0
14 -5 12 -12z m352 3 c0 -14 -18 -23 -30 -16 -6 4 -8 11 -5 16 8 12 35 12 35
0z m-620 -21 c0 -5 -7 -10 -16 -10 -8 0 -12 5 -9 10 3 6 10 10 16 10 5 0 9 -4
9 -10z m350 -5 c0 -8 -7 -15 -15 -15 -8 0 -15 7 -15 15 0 8 7 15 15 15 8 0 15
-7 15 -15z m350 6 c0 -14 -18 -23 -30 -16 -6 4 -8 11 -5 16 8 12 35 12 35 0z
m-615 -21 c3 -6 -1 -13 -10 -16 -19 -8 -30 0 -20 15 8 14 22 14 30 1z m345 6
c0 -11 -19 -15 -25 -6 -3 5 1 10 9 10 9 0 16 -2 16 -4z m350 -5 c0 -14 -18
-23 -30 -16 -6 4 -8 11 -5 16 8 12 35 12 35 0z m-960 -26 c0 -8 -7 -15 -15
-15 -8 0 -15 7 -15 15 0 8 7 15 15 15 8 0 15 -7 15 -15z m345 6 c7 -12 -12
-24 -25 -16 -11 7 -4 25 10 25 5 0 11 -4 15 -9z m693 -9 c2 -7 -3 -12 -12 -12
-9 0 -16 7 -16 16 0 17 22 14 28 -4z m-958 -17 c0 -8 -7 -15 -15 -15 -8 0 -15
7 -15 15 0 8 7 15 15 15 8 0 15 -7 15 -15z m755 -43 c50 -35 125 -115 125
-132 0 -5 8 -10 18 -12 13 -3 -5 -26 -73 -94 -49 -49 -139 -147 -199 -217 -61
-70 -157 -176 -215 -234 -84 -85 -119 -113 -176 -139 -112 -54 -208 -73 -381
-79 l-153 -5 -7 36 c-4 20 -2 52 5 72 12 41 115 205 357 567 83 124 200 226
296 257 37 12 238 25 307 20 32 -2 59 -13 96 -40z m-670 29 c7 -12 -12 -24
-25 -16 -11 7 -4 25 10 25 5 0 11 -4 15 -9z m75 -26 c0 -8 -4 -15 -9 -15 -13
0 -22 16 -14 24 11 11 23 6 23 -9z m691 2 c-1 -12 -15 -9 -19 4 -3 6 1 10 8 8
6 -3 11 -8 11 -12z m89 -22 c0 -8 -7 -15 -15 -15 -8 0 -15 7 -15 15 0 8 7 15
15 15 8 0 15 -7 15 -15z m-960 -20 c0 -8 -7 -15 -15 -15 -16 0 -20 12 -8 23
11 12 23 8 23 -8z m80 -20 c0 -8 -7 -15 -15 -15 -16 0 -20 12 -8 23 11 12 23
8 23 -8z m-15 -75 c3 -6 -1 -13 -10 -16 -19 -8 -30 0 -20 15 8 14 22 14 30 1z
m-125 -155 c0 -8 -7 -15 -15 -15 -9 0 -12 6 -9 15 4 8 10 15 15 15 5 0 9 -7 9
-15z m2943 -32 c-7 -2 -21 -2 -30 0 -10 3 -4 5 12 5 17 0 24 -2 18 -5z m-2963
-48 c0 -8 -7 -15 -15 -15 -8 0 -15 7 -15 15 0 8 7 15 15 15 8 0 15 -7 15 -15z
m4530 -19 c137 -69 213 -194 211 -351 -2 -165 -57 -283 -179 -377 -71 -56
-132 -85 -197 -94 -27 -3 -57 -8 -66 -9 -27 -5 -112 15 -154 36 -56 29 -111
84 -147 147 -30 52 -50 62 -56 29 -2 -9 4 -32 14 -52 9 -20 14 -38 12 -41 -12
-11 -69 51 -95 104 -23 46 -28 71 -29 133 0 42 -4 80 -7 86 -3 5 3 9 15 9 16
-1 27 12 47 61 40 92 95 166 172 228 38 31 69 60 69 66 0 6 4 7 10 4 5 -3 24
2 42 11 100 52 246 56 338 10z m-6715 -163 c94 -28 209 -58 258 -68 l87 -18 0
-121 c0 -67 3 -145 7 -175 l6 -54 -39 6 c-22 4 -101 24 -177 45 l-137 39 0
-63 c0 -35 1 -65 3 -65 1 -1 81 -9 177 -18 l174 -16 17 -115 c9 -63 20 -134
24 -157 6 -36 5 -43 -8 -43 -57 0 -559 79 -570 89 -8 8 -36 217 -37 269 0 23
2 24 60 17 33 -4 60 -5 60 -2 0 2 -7 23 -15 46 l-14 41 41 17 41 16 -89 27
-89 26 -3 75 c-2 40 0 116 3 167 7 89 8 94 29 89 11 -2 98 -27 191 -54z m2063
39 c2 -7 -3 -12 -12 -12 -9 0 -16 7 -16 16 0 17 22 14 28 -4z m-27 -85 c-13
-13 -26 -3 -16 12 3 6 11 8 17 5 6 -4 6 -10 -1 -17z m-91 -56 c0 -12 -20 -25
-27 -18 -7 7 6 27 18 27 5 0 9 -4 9 -9z m-22 -83 c-3 -7 -11 -13 -18 -13 -7 0
-15 6 -17 13 -3 7 4 12 17 12 13 0 20 -5 18 -12z m-23 -77 c7 -12 -12 -24 -25
-16 -11 7 -4 25 10 25 5 0 11 -4 15 -9z m-20 -80 c7 -12 -12 -24 -25 -16 -11
7 -4 25 10 25 5 0 11 -4 15 -9z m1686 -174 c-13 -13 -26 -3 -16 12 3 6 11 8
17 5 6 -4 6 -10 -1 -17z m87 -9 c-6 -18 -28 -21 -28 -4 0 9 7 16 16 16 9 0 14
-5 12 -12z m268 -11 c4 -4 -2 -7 -14 -7 -12 0 -22 4 -22 9 0 10 26 9 36 -2z
m-536 -13 c0 -8 -4 -12 -10 -9 -5 3 -10 10 -10 16 0 5 5 9 10 9 6 0 10 -7 10
-16z m350 1 c0 -8 -7 -15 -15 -15 -8 0 -15 7 -15 15 0 8 7 15 15 15 8 0 15 -7
15 -15z m-268 -20 c0 -5 -5 -11 -11 -13 -6 -2 -11 4 -11 13 0 9 5 15 11 13 6
-2 11 -8 11 -13z m348 0 c0 -8 -7 -15 -15 -15 -16 0 -20 12 -8 23 11 12 23 8
23 -8z m-268 -20 c0 -5 -5 -11 -11 -13 -6 -2 -11 4 -11 13 0 9 5 15 11 13 6
-2 11 -8 11 -13z m88 -26 c0 -5 -7 -9 -15 -9 -15 0 -20 12 -9 23 8 8 24 -1 24
-14z m80 -20 c0 -5 -7 -9 -15 -9 -15 0 -20 12 -9 23 8 8 24 -1 24 -14z m-4131
-4 c63 -9 115 -16 116 -18 1 -1 12 -67 24 -145 21 -132 79 -388 116 -506 l15
-48 -128 7 c-70 4 -127 8 -128 9 -1 0 -10 39 -20 86 l-19 84 -100 17 c-55 10
-137 25 -182 35 l-82 16 -10 47 c-17 83 -45 270 -40 275 2 2 54 -2 114 -10
124 -15 225 -18 225 -6 0 10 -18 116 -25 150 -3 12 -2 22 2 22 5 0 59 -7 122
-15z m3866 -5 c3 -6 -1 -13 -10 -16 -19 -8 -30 0 -20 15 8 14 22 14 30 1z
m335 0 c0 -5 -5 -10 -11 -10 -5 0 -7 5 -4 10 3 6 8 10 11 10 2 0 4 -4 4 -10z
m-252 -28 c2 -7 -3 -12 -12 -12 -9 0 -16 7 -16 16 0 17 22 14 28 -4z m82 -23
c0 -5 -7 -9 -15 -9 -15 0 -20 12 -9 23 8 8 24 -1 24 -14z m69 -20 c-16 -10
-23 -4 -14 10 3 6 11 8 17 5 6 -4 5 -9 -3 -15z m-176 -45 c-4 -10 -9 -12 -15
-6 -12 12 -1 35 12 27 5 -3 6 -13 3 -21z m82 -24 c-5 -8 -11 -8 -17 -2 -6 6
-7 16 -3 22 5 8 11 8 17 2 6 -6 7 -16 3 -22z m945 -107 c85 -86 206 -240 197
-250 -4 -3 -98 30 -217 76 -30 12 -99 45 -153 74 l-98 54 76 71 c43 40 82 72
88 72 5 0 54 -44 107 -97z m-1042 55 c-6 -18 -28 -21 -28 -4 0 9 7 16 16 16 9
0 14 -5 12 -12z m-3069 -57 c6 -33 23 -97 36 -142 13 -46 22 -86 19 -89 -3 -3
-99 -7 -212 -11 -136 -3 -215 -9 -229 -17 -25 -14 -30 -52 -13 -98 l11 -27
112 7 c62 4 169 15 238 25 68 10 127 16 130 12 4 -3 23 -49 43 -101 21 -52 65
-152 99 -221 l62 -126 -57 -68 c-32 -37 -58 -74 -58 -81 0 -13 61 -29 172 -44
33 -5 62 -10 63 -12 8 -8 135 -190 135 -193 0 -6 -560 -189 -564 -184 -2 2
-27 40 -56 84 l-52 80 83 25 83 26 -49 18 c-121 45 -215 89 -215 102 0 7 18
54 40 105 23 50 39 93 37 96 -2 2 -36 -2 -75 -8 -39 -6 -77 -9 -84 -7 -15 6
-84 166 -75 175 3 3 68 16 144 29 143 25 397 83 391 90 -2 2 -87 -5 -189 -15
-101 -11 -224 -22 -274 -26 l-90 -7 -36 63 c-49 85 -84 178 -103 271 -19 93
-20 150 -2 201 37 102 102 123 387 126 l136 1 12 -59z m3801 -126 c0 -8 -7
-15 -15 -15 -8 0 -15 7 -15 15 0 8 7 15 15 15 8 0 15 -7 15 -15z m80 -20 c0
-8 -4 -15 -9 -15 -13 0 -22 16 -14 24 11 11 23 6 23 -9z m-100 -60 c0 -8 -7
-15 -15 -15 -8 0 -15 7 -15 15 0 8 7 15 15 15 8 0 15 -7 15 -15z m2127 -7 c30
-34 50 -76 77 -171 45 -156 60 -293 58 -547 -1 -223 -9 -323 -43 -520 -42
-249 -81 -389 -150 -538 -22 -46 -39 -88 -39 -94 0 -13 -111 -2 -179 18 -144
41 -253 131 -314 257 -61 127 -72 242 -36 382 34 132 34 132 9 140 -28 9 -37
-4 -68 -105 -27 -84 -33 -226 -14 -294 6 -22 10 -42 8 -44 -11 -10 -69 33 -91
68 -40 64 -51 118 -38 203 20 141 104 255 237 321 91 45 121 83 166 216 15 46
23 100 27 182 7 135 -8 225 -42 267 -36 43 -45 67 -45 118 0 35 6 55 19 70 21
23 112 55 201 72 82 16 99 18 171 20 56 1 68 -2 86 -21z m-2047 -13 c0 -8 -4
-15 -9 -15 -13 0 -22 16 -14 24 11 11 23 6 23 -9z m85 -14 c7 -12 -12 -24 -25
-16 -11 7 -4 25 10 25 5 0 11 -4 15 -9z m-273 -26 c0 -5 -5 -11 -11 -13 -6 -2
-11 4 -11 13 0 9 5 15 11 13 6 -2 11 -8 11 -13z m348 0 c0 -8 -4 -15 -9 -15
-13 0 -22 16 -14 24 11 11 23 6 23 -9z m-260 -20 c0 -8 -7 -15 -15 -15 -16 0
-20 12 -8 23 11 12 23 8 23 -8z m342 0 c0 -5 -5 -11 -11 -13 -6 -2 -11 4 -11
13 0 9 5 15 11 13 6 -2 11 -8 11 -13z m-262 -20 c0 -8 -7 -15 -15 -15 -16 0
-20 12 -8 23 11 12 23 8 23 -8z m348 -3 c2 -7 -3 -12 -12 -12 -9 0 -16 7 -16
16 0 17 22 14 28 -4z m-268 -17 c0 -8 -7 -15 -15 -15 -16 0 -20 12 -8 23 11
12 23 8 23 -8z m350 0 c0 -8 -7 -15 -15 -15 -8 0 -15 7 -15 15 0 8 7 15 15 15
8 0 15 -7 15 -15z m-615 -23 c0 -18 -20 -15 -23 4 -3 10 1 15 10 12 7 -3 13
-10 13 -16z m350 9 c7 -12 -12 -24 -25 -16 -11 7 -4 25 10 25 5 0 11 -4 15 -9z
m345 -6 c0 -8 -7 -15 -15 -15 -16 0 -20 12 -8 23 11 12 23 8 23 -8z m-615 -35
c-5 -8 -11 -8 -17 -2 -6 6 -7 16 -3 22 5 8 11 8 17 2 6 -6 7 -16 3 -22z m353
12 c2 -7 -3 -12 -12 -12 -9 0 -16 7 -16 16 0 17 22 14 28 -4z m-268 -23 c0 -5
-7 -9 -15 -9 -15 0 -20 12 -9 23 8 8 24 -1 24 -14z m348 3 c2 -7 -3 -12 -12
-12 -9 0 -16 7 -16 16 0 17 22 14 28 -4z m1037 -2 c-3 -5 -10 -10 -16 -10 -5
0 -9 5 -9 10 0 6 7 10 16 10 8 0 12 -4 9 -10z m-1305 -21 c0 -5 -7 -9 -15 -9
-15 0 -20 12 -9 23 8 8 24 -1 24 -14z m350 0 c0 -5 -7 -9 -15 -9 -15 0 -20 12
-9 23 8 8 24 -1 24 -14z m690 0 c0 -5 -4 -9 -10 -9 -5 0 -10 7 -10 16 0 8 5
12 10 9 6 -3 10 -10 10 -16z m350 6 c0 -8 -7 -15 -15 -15 -8 0 -15 7 -15 15 0
8 7 15 15 15 8 0 15 -7 15 -15z m-1735 -5 c-3 -5 -10 -10 -16 -10 -5 0 -9 5
-9 10 0 6 7 10 16 10 8 0 12 -4 9 -10z m85 -21 c0 -5 -7 -9 -15 -9 -15 0 -20
12 -9 23 8 8 24 -1 24 -14z m340 6 c0 -8 -4 -15 -10 -15 -5 0 -10 7 -10 15 0
8 5 15 10 15 6 0 10 -7 10 -15z m345 -15 c-5 -8 -11 -8 -17 -2 -6 6 -7 16 -3
22 5 8 11 8 17 2 6 -6 7 -16 3 -22z m700 21 c7 -12 -12 -24 -25 -16 -11 7 -4
25 10 25 5 0 11 -4 15 -9z m345 -6 c0 -8 -7 -15 -15 -15 -16 0 -20 12 -8 23
11 12 23 8 23 -8z m-1655 -35 c-5 -8 -11 -8 -17 -2 -6 6 -7 16 -3 22 5 8 11 8
17 2 6 -6 7 -16 3 -22z m347 -2 c-15 -15 -26 -4 -18 18 5 13 9 15 18 6 9 -9 9
-15 0 -24z m348 11 c0 -5 -7 -9 -15 -9 -15 0 -20 12 -9 23 8 8 24 -1 24 -14z
m695 12 c7 -12 -12 -24 -25 -16 -11 7 -4 25 10 25 5 0 11 -4 15 -9z m-5841
-38 c115 -40 233 -156 301 -296 107 -221 74 -375 -92 -423 -216 -63 -478 125
-547 392 -38 148 -3 274 89 322 16 8 44 19 60 23 38 10 138 1 189 -18z m4531
-3 c-5 -8 -11 -8 -17 -2 -6 6 -7 16 -3 22 5 8 11 8 17 2 6 -6 7 -16 3 -22z
m1393 12 c2 -7 -3 -12 -12 -12 -9 0 -16 7 -16 16 0 17 22 14 28 -4z m-1040 -3
c-2 -6 -8 -10 -13 -10 -5 0 -11 4 -13 10 -2 6 4 11 13 11 9 0 15 -5 13 -11z
m77 -29 c-5 -8 -11 -8 -17 -2 -6 6 -7 16 -3 22 5 8 11 8 17 2 6 -6 7 -16 3
-22z m1045 9 c0 -5 -7 -9 -15 -9 -15 0 -20 12 -9 23 8 8 24 -1 24 -14z m-1732
-1 c-6 -18 -28 -21 -28 -4 0 9 7 16 16 16 9 0 14 -5 12 -12z m340 1 c-2 -6 -8
-10 -13 -10 -5 0 -11 4 -13 10 -2 6 4 11 13 11 9 0 15 -5 13 -11z m92 -19 c0
-13 -19 -22 -30 -15 -14 9 0 34 16 28 8 -3 14 -9 14 -13z m335 -10 c-5 -8 -11
-8 -17 -2 -6 6 -7 16 -3 22 5 8 11 8 17 2 6 -6 7 -16 3 -22z m697 8 c-12 -12
-35 -1 -27 12 3 5 13 6 21 3 10 -4 12 -9 6 -15z m348 7 c0 -8 -7 -15 -15 -15
-16 0 -20 12 -8 23 11 12 23 8 23 -8z m-1732 -6 c-2 -6 -8 -10 -13 -10 -5 0
-11 4 -13 10 -2 6 4 11 13 11 9 0 15 -5 13 -11z m77 -29 c-5 -8 -11 -8 -17 -2
-6 6 -7 16 -3 22 5 8 11 8 17 2 6 -6 7 -16 3 -22z m690 0 c-5 -8 -11 -8 -17
-2 -6 6 -7 16 -3 22 5 8 11 8 17 2 6 -6 7 -16 3 -22z m703 12 c2 -7 -3 -12
-12 -12 -9 0 -16 7 -16 16 0 17 22 14 28 -4z m342 -3 c0 -5 -7 -9 -15 -9 -15
0 -20 12 -9 23 8 8 24 -1 24 -14z m-1385 2 c7 -12 -12 -24 -25 -16 -11 7 -4
25 10 25 5 0 11 -4 15 -9z m-270 -31 c-5 -8 -11 -8 -17 -2 -6 6 -7 16 -3 22 5
8 11 8 17 2 6 -6 7 -16 3 -22z m347 -2 c-15 -15 -26 -4 -18 18 5 13 9 15 18 6
9 -9 9 -15 0 -24z m348 12 c0 -21 -15 -27 -25 -10 -7 12 2 30 16 30 5 0 9 -9
9 -20z m695 2 c0 -18 -20 -15 -23 4 -3 10 1 15 10 12 7 -3 13 -10 13 -16z m80
-32 c-5 -8 -11 -8 -17 -2 -6 6 -7 16 -3 22 5 8 11 8 17 2 6 -6 7 -16 3 -22z
m-1730 11 c7 -12 -12 -24 -25 -16 -11 7 -4 25 10 25 5 0 11 -4 15 -9z m345 -7
c0 -17 -22 -14 -28 4 -2 7 3 12 12 12 9 0 16 -7 16 -16z m348 5 c-2 -6 -8 -10
-13 -10 -5 0 -11 4 -13 10 -2 6 4 11 13 11 9 0 15 -5 13 -11z m771 -26 c-8 -9
-16 -10 -22 -4 -13 13 0 31 19 24 11 -4 12 -8 3 -20z m351 6 c0 -5 -7 -9 -15
-9 -15 0 -20 12 -9 23 8 8 24 -1 24 -14z m-1732 -1 c-6 -18 -28 -21 -28 -4 0
9 7 16 16 16 9 0 14 -5 12 -12z m342 -3 c0 -8 -4 -15 -9 -15 -13 0 -22 16 -14
24 11 11 23 6 23 -9z m348 4 c-2 -6 -8 -10 -13 -10 -5 0 -11 4 -13 10 -2 6 4
11 13 11 9 0 15 -5 13 -11z m77 -29 c-5 -8 -11 -8 -17 -2 -6 6 -7 16 -3 22 5
8 11 8 17 2 6 -6 7 -16 3 -22z m703 12 c2 -7 -5 -12 -17 -12 -14 0 -19 5 -14
15 6 17 25 15 31 -3z m337 -12 c-5 -8 -11 -8 -17 -2 -6 6 -7 16 -3 22 5 8 11
8 17 2 6 -6 7 -16 3 -22z m-1727 8 c-6 -18 -28 -21 -28 -4 0 9 7 16 16 16 9 0
14 -5 12 -12z m347 3 c7 -12 -12 -24 -25 -16 -11 7 -4 25 10 25 5 0 11 -4 15
-9z m1120 -31 c-5 -8 -11 -8 -17 -2 -6 6 -7 16 -3 22 5 8 11 8 17 2 6 -6 7
-16 3 -22z m-1385 5 c0 -8 -7 -15 -15 -15 -8 0 -15 7 -15 15 0 8 7 15 15 15 8
0 15 -7 15 -15z m348 3 c-6 -18 -28 -21 -28 -4 0 9 7 16 16 16 9 0 14 -5 12
-12z m342 -4 c0 -17 -22 -14 -28 4 -2 7 3 12 12 12 9 0 16 -7 16 -16z m-610
-19 c0 -8 -7 -15 -15 -15 -16 0 -20 12 -8 23 11 12 23 8 23 -8z m348 3 c-6
-18 -28 -21 -28 -4 0 9 7 16 16 16 9 0 14 -5 12 -12z m336 -9 c-3 -5 -10 -7
-15 -3 -5 3 -7 10 -3 15 3 5 10 7 15 3 5 -3 7 -10 3 -15z m704 10 c-2 -6 -8
-10 -13 -10 -5 0 -11 4 -13 10 -2 6 4 11 13 11 9 0 15 -5 13 -11z m77 -29 c-5
-8 -11 -8 -17 -2 -6 6 -7 16 -3 22 5 8 11 8 17 2 6 -6 7 -16 3 -22z m-1730 10
c3 -5 2 -10 -4 -10 -5 0 -13 5 -16 10 -3 6 -2 10 4 10 5 0 13 -4 16 -10z m350
1 c7 -12 -12 -24 -25 -16 -11 7 -4 25 10 25 5 0 11 -4 15 -9z m343 -2 c-2 -6
-8 -10 -13 -10 -5 0 -11 4 -13 10 -2 6 4 11 13 11 9 0 15 -5 13 -11z m697 2
c7 -12 -12 -24 -25 -16 -11 7 -4 25 10 25 5 0 11 -4 15 -9z m420 -31 c-5 -8
-11 -8 -17 -2 -6 6 -7 16 -3 22 5 8 11 8 17 2 6 -6 7 -16 3 -22z m-1725 5 c0
-8 -7 -15 -15 -15 -8 0 -15 7 -15 15 0 8 7 15 15 15 8 0 15 -7 15 -15z m342 0
c0 -5 -5 -11 -11 -13 -6 -2 -11 4 -11 13 0 9 5 15 11 13 6 -2 11 -8 11 -13z
m348 0 c0 -8 -4 -15 -9 -15 -13 0 -22 16 -14 24 11 11 23 6 23 -9z m695 6 c7
-12 -12 -24 -25 -16 -11 7 -4 25 10 25 5 0 11 -4 15 -9z m415 -23 c0 -16 -3
-19 -11 -11 -6 6 -8 16 -5 22 11 17 16 13 16 -11z m-1720 -3 c0 -8 -7 -15 -15
-15 -8 0 -15 7 -15 15 0 8 7 15 15 15 8 0 15 -7 15 -15z m342 0 c0 -5 -5 -11
-11 -13 -6 -2 -11 4 -11 13 0 9 5 15 11 13 6 -2 11 -8 11 -13z m348 0 c0 -8
-4 -15 -9 -15 -13 0 -22 16 -14 24 11 11 23 6 23 -9z m695 6 c7 -12 -12 -24
-25 -16 -11 7 -4 25 10 25 5 0 11 -4 15 -9z m-1305 -26 c0 -8 -4 -15 -9 -15
-13 0 -22 16 -14 24 11 11 23 6 23 -9z m348 -3 c2 -7 -3 -12 -12 -12 -9 0 -16
7 -16 16 0 17 22 14 28 -4z m347 9 c7 -12 -12 -24 -25 -16 -11 7 -4 25 10 25
5 0 11 -4 15 -9z m693 -2 c-2 -6 -8 -10 -13 -10 -5 0 -11 4 -13 10 -2 6 4 11
13 11 9 0 15 -5 13 -11z m-1306 -31 c-12 -12 -35 -1 -27 12 3 5 13 6 21 3 10
-4 12 -9 6 -15z m348 7 c0 -8 -7 -15 -15 -15 -8 0 -15 7 -15 15 0 8 7 15 15
15 8 0 15 -7 15 -15z m690 0 c0 -8 -4 -15 -9 -15 -13 0 -22 16 -14 24 11 11
23 6 23 -9z m348 4 c-2 -6 -8 -10 -13 -10 -5 0 -11 4 -13 10 -2 6 4 11 13 11
9 0 15 -5 13 -11z m-1303 -18 c7 -12 -12 -24 -25 -16 -11 7 -4 25 10 25 5 0
11 -4 15 -9z m342 -17 c-9 -9 -28 6 -21 18 4 6 10 6 17 -1 6 -6 8 -13 4 -17z
m698 17 c7 -12 -12 -24 -25 -16 -11 7 -4 25 10 25 5 0 11 -4 15 -9z m345 -7
c0 -17 -22 -14 -28 4 -2 7 3 12 12 12 9 0 16 -7 16 -16z m-1650 -14 c0 -5 -4
-10 -10 -10 -5 0 -10 5 -10 10 0 6 5 10 10 10 6 0 10 -4 10 -10z m345 1 c7
-12 -12 -24 -25 -16 -11 7 -4 25 10 25 5 0 11 -4 15 -9z m345 -6 c0 -8 -4 -15
-9 -15 -13 0 -22 16 -14 24 11 11 23 6 23 -9z m692 0 c0 -5 -5 -11 -11 -13 -6
-2 -11 4 -11 13 0 9 5 15 11 13 6 -2 11 -8 11 -13z m348 0 c0 -8 -4 -15 -9
-15 -13 0 -22 16 -14 24 11 11 23 6 23 -9z m-1650 -19 c0 -8 -4 -17 -9 -21
-12 -7 -24 12 -16 25 9 15 25 12 25 -4z m341 -9 c-13 -13 -26 -3 -16 12 3 6
11 8 17 5 6 -4 6 -10 -1 -17z m354 14 c7 -12 -12 -24 -25 -16 -11 7 -4 25 10
25 5 0 11 -4 15 -9z m695 -6 c0 -8 -7 -15 -15 -15 -8 0 -15 7 -15 15 0 8 7 15
15 15 8 0 15 -7 15 -15z m-1305 -15 c3 -6 -1 -13 -10 -16 -19 -8 -30 0 -20 15
8 14 22 14 30 1z m345 -11 c0 -5 -7 -9 -15 -9 -15 0 -20 12 -9 23 8 8 24 -1
24 -14z m345 10 c10 -15 -1 -23 -20 -15 -9 3 -13 10 -10 16 8 13 22 13 30 -1z
m347 -4 c0 -5 -5 -11 -11 -13 -6 -2 -11 4 -11 13 0 9 5 15 11 13 6 -2 11 -8
11 -13z m346 3 c-6 -18 -28 -21 -28 -4 0 9 7 16 16 16 9 0 14 -5 12 -12z
m-1308 -23 c0 -8 -7 -15 -15 -15 -16 0 -20 12 -8 23 11 12 23 8 23 -8z m350
-6 c0 -5 -7 -9 -15 -9 -15 0 -20 12 -9 23 8 8 24 -1 24 -14z m695 12 c7 -12
-12 -24 -25 -16 -11 7 -4 25 10 25 5 0 11 -4 15 -9z m345 -6 c0 -8 -7 -15 -15
-15 -16 0 -20 12 -8 23 11 12 23 8 23 -8z m-1305 -14 c7 -12 -12 -24 -25 -16
-11 7 -4 25 10 25 5 0 11 -4 15 -9z m345 -6 c0 -8 -7 -15 -15 -15 -16 0 -20
12 -8 23 11 12 23 8 23 -8z m695 6 c7 -12 -12 -24 -25 -16 -11 7 -4 25 10 25
5 0 11 -4 15 -9z m350 0 c7 -12 -12 -24 -25 -16 -11 7 -4 25 10 25 5 0 11 -4
15 -9z m-1310 -41 c-5 -8 -11 -8 -17 -2 -6 6 -7 16 -3 22 5 8 11 8 17 2 6 -6
7 -16 3 -22z m350 21 c7 -12 -12 -24 -25 -16 -11 7 -4 25 10 25 5 0 11 -4 15
-9z m687 -6 c0 -5 -5 -11 -11 -13 -6 -2 -11 4 -11 13 0 9 5 15 11 13 6 -2 11
-8 11 -13z m-957 -35 c-5 -8 -11 -8 -17 -2 -6 6 -7 16 -3 22 5 8 11 8 17 2 6
-6 7 -16 3 -22z m350 19 c10 -15 -1 -23 -20 -15 -9 3 -13 10 -10 16 8 13 22
13 30 -1z m693 -7 c2 -7 -3 -12 -12 -12 -9 0 -16 7 -16 16 0 17 22 14 28 -4z
m-338 4 c0 -3 -4 -8 -10 -11 -5 -3 -10 -1 -10 4 0 6 5 11 10 11 6 0 10 -2 10
-4z m-966 -27 c-8 -14 -24 -10 -24 6 0 9 6 12 15 9 8 -4 12 -10 9 -15z m341
-9 c-5 -8 -11 -8 -17 -2 -6 6 -7 16 -3 22 5 8 11 8 17 2 6 -6 7 -16 3 -22z
m700 20 c3 -6 -1 -13 -10 -16 -19 -8 -30 0 -20 15 8 14 22 14 30 1z m345 -5
c0 -8 -7 -15 -15 -15 -16 0 -20 12 -8 23 11 12 23 8 23 -8z m-960 -26 c0 -5
-7 -9 -15 -9 -15 0 -20 12 -9 23 8 8 24 -1 24 -14z m695 10 c10 -15 -1 -23
-20 -15 -9 3 -13 10 -10 16 8 13 22 13 30 -1z m350 1 c3 -6 -1 -13 -10 -16
-19 -8 -30 0 -20 15 8 14 22 14 30 1z m-1391 -15 c-4 -8 -10 -12 -15 -9 -14 8
-10 24 6 24 9 0 12 -6 9 -15z m86 -16 c0 -5 -7 -9 -15 -9 -15 0 -20 12 -9 23
8 8 24 -1 24 -14z m340 7 c0 -8 -4 -17 -9 -21 -12 -7 -24 12 -16 25 9 15 25
12 25 -4z m692 -1 c0 -5 -5 -11 -11 -13 -6 -2 -11 4 -11 13 0 9 5 15 11 13 6
-2 11 -8 11 -13z m-957 -35 c-5 -8 -11 -8 -17 -2 -6 6 -7 16 -3 22 5 8 11 8
17 2 6 -6 7 -16 3 -22z m348 4 c-4 -10 -9 -12 -15 -6 -12 12 -1 35 12 27 5 -3
6 -13 3 -21z m697 5 c0 -5 -7 -9 -15 -9 -15 0 -20 12 -9 23 8 8 24 -1 24 -14z
m-610 -20 c0 -5 -7 -9 -15 -9 -15 0 -20 12 -9 23 8 8 24 -1 24 -14z m340 6 c0
-8 -7 -15 -15 -15 -16 0 -20 12 -8 23 11 12 23 8 23 -8z m350 0 c0 -8 -7 -15
-15 -15 -16 0 -20 12 -8 23 11 12 23 8 23 -8z m-1042 -6 c-2 -6 -8 -10 -13
-10 -5 0 -11 4 -13 10 -2 6 4 11 13 11 9 0 15 -5 13 -11z m774 -14 c0 -5 -5
-11 -11 -13 -6 -2 -11 4 -11 13 0 9 5 15 11 13 6 -2 11 -8 11 -13z m330 -7
c-7 -7 -12 -8 -12 -2 0 14 12 26 19 19 2 -3 -1 -11 -7 -17z m-1024 1 c-2 -6
-8 -10 -13 -10 -5 0 -11 4 -13 10 -2 6 4 11 13 11 9 0 15 -5 13 -11z m782 -20
c0 -5 -7 -9 -15 -9 -15 0 -20 12 -9 23 8 8 24 -1 24 -14z m-700 3 c0 -13 -12
-22 -22 -16 -10 6 -1 24 13 24 5 0 9 -4 9 -8z m-260 -23 c0 -5 -7 -9 -15 -9
-15 0 -20 12 -9 23 8 8 24 -1 24 -14z m345 1 c0 -7 -6 -15 -12 -17 -8 -3 -13
4 -13 17 0 13 5 20 13 18 6 -3 12 -11 12 -18z m690 -10 c-5 -8 -11 -8 -17 -2
-6 6 -7 16 -3 22 5 8 11 8 17 2 6 -6 7 -16 3 -22z m-613 -22 c-15 -15 -26 -4
-18 18 5 13 9 15 18 6 9 -9 9 -15 0 -24z m-344 11 c-2 -6 -8 -10 -13 -10 -5 0
-11 4 -13 10 -2 6 4 11 13 11 9 0 15 -5 13 -11z m692 -5 c0 -17 -22 -14 -28 4
-2 7 3 12 12 12 9 0 16 -7 16 -16z m345 6 c-3 -5 -10 -10 -16 -10 -5 0 -9 5
-9 10 0 6 7 10 16 10 8 0 12 -4 9 -10z m-957 -21 c-2 -6 -8 -10 -13 -10 -5 0
-11 4 -13 10 -2 6 4 11 13 11 9 0 15 -5 13 -11z m700 0 c-2 -6 -8 -10 -13 -10
-5 0 -11 4 -13 10 -2 6 4 11 13 11 9 0 15 -5 13 -11z m77 -29 c-5 -8 -11 -8
-17 -2 -6 6 -7 16 -3 22 5 8 11 8 17 2 6 -6 7 -16 3 -22z m-695 5 c0 -8 -4
-15 -9 -15 -13 0 -22 16 -14 24 11 11 23 6 23 -9z m772 -27 c-15 -15 -26 -4
-18 18 5 13 9 15 18 6 9 -9 9 -15 0 -24z m-687 13 c7 -12 -12 -24 -25 -16 -11
7 -4 25 10 25 5 0 11 -4 15 -9z m80 -20 c7 -12 -12 -24 -25 -16 -11 7 -4 25
10 25 5 0 11 -4 15 -9z m346 -6 c-1 -15 -24 -12 -29 3 -3 9 2 13 12 10 10 -1
17 -7 17 -13z m-261 -20 c0 -8 -7 -15 -15 -15 -8 0 -15 7 -15 15 0 8 7 15 15
15 8 0 15 -7 15 -15z m350 6 c0 -14 -18 -23 -30 -16 -6 4 -8 11 -5 16 8 12 35
12 35 0z m78 -23 c-6 -18 -28 -21 -28 -4 0 9 7 16 16 16 9 0 14 -5 12 -12z
m-183 -37 c7 -12 -12 -24 -25 -16 -11 7 -4 25 10 25 5 0 11 -4 15 -9z m-265
-21 c0 -5 -7 -10 -15 -10 -8 0 -15 5 -15 10 0 6 7 10 15 10 8 0 15 -4 15 -10z
m340 -5 c0 -8 -4 -15 -9 -15 -13 0 -22 16 -14 24 11 11 23 6 23 -9z m-4257
-100 c48 -53 87 -99 87 -103 0 -4 -23 -30 -51 -57 -28 -28 -113 -117 -188
-200 -74 -82 -140 -150 -145 -150 -5 0 -52 47 -104 103 -69 76 -91 107 -83
115 21 21 11 34 -49 66 -33 18 -60 34 -60 37 0 3 7 18 15 34 l16 30 -38 0
c-35 1 -42 6 -82 61 -24 33 -42 62 -39 64 2 2 64 9 138 15 175 14 253 25 375
54 55 13 105 24 110 25 6 0 49 -42 98 -94z m4342 86 c7 -12 -12 -24 -25 -16
-11 7 -4 25 10 25 5 0 11 -4 15 -9z m-5143 -150 c150 -199 209 -315 210 -416
1 -83 -37 -136 -125 -175 -54 -24 -140 -28 -208 -10 -130 35 -284 165 -400
338 -73 109 -124 201 -116 209 3 2 66 22 140 43 74 22 190 60 258 84 68 25
131 44 139 43 8 -1 54 -54 102 -116z m4958 109 c0 -5 -4 -10 -10 -10 -5 0 -10
5 -10 10 0 6 5 10 10 10 6 0 10 -4 10 -10z m80 -20 c0 -5 -4 -10 -10 -10 -5 0
-10 5 -10 10 0 6 5 10 10 10 6 0 10 -4 10 -10z m-742 -376 l92 -39 0 -111 c0
-153 -4 -169 -55 -204 -23 -16 -55 -32 -71 -36 -16 -4 -108 -33 -204 -65 -96
-32 -233 -69 -305 -82 -150 -29 -394 -61 -402 -53 -9 9 17 235 42 364 38 192
40 199 74 205 41 9 244 90 365 146 l101 47 135 -67 c74 -37 177 -84 228 -105z
m-3213 74 l84 -72 12 -83 c7 -46 15 -86 19 -88 4 -3 27 13 50 35 l43 40 70
-47 69 -48 -34 -28 c-45 -40 -388 -306 -416 -325 -12 -8 -25 -13 -27 -10 -3 2
-32 80 -65 173 -33 93 -61 170 -63 171 -2 2 -40 -19 -85 -47 l-82 -51 -37 30
c-21 17 -50 43 -66 59 l-27 29 127 86 c71 47 175 122 233 167 58 44 106 80
108 81 2 0 41 -32 87 -72z m-696 -353 c125 -30 275 -129 346 -229 78 -110 72
-209 -17 -292 -155 -147 -467 -101 -639 94 -138 157 -125 318 33 398 89 45
170 54 277 29z m1355 -79 c179 -88 241 -133 275 -199 21 -43 23 -54 14 -88 -6
-21 -9 -39 -8 -39 1 0 23 36 49 80 39 67 49 79 64 71 9 -5 76 -25 147 -46 72
-21 131 -39 133 -40 11 -9 -306 -495 -322 -495 -15 0 -238 75 -260 87 -13 7
-10 16 16 58 17 28 60 97 96 155 l65 105 -41 -37 c-45 -41 -121 -68 -188 -68
l-42 0 10 -37 c6 -21 19 -55 30 -76 11 -22 17 -41 14 -44 -6 -6 -222 18 -236
27 -7 4 -14 44 -17 89 l-6 82 -42 -41 -42 -42 -49 25 c-40 20 -203 114 -211
121 -1 1 48 56 109 122 61 65 147 161 191 212 44 50 84 92 90 92 5 0 78 -33
161 -74z m3007 -28 c18 -57 34 -108 36 -115 3 -6 -14 -21 -36 -33 -45 -23 -76
-62 -67 -85 3 -8 25 -29 50 -46 74 -53 81 -98 30 -186 -41 -71 -173 -155 -280
-177 -29 -7 -32 -5 -48 38 -10 25 -16 49 -14 53 2 4 24 15 51 24 61 21 89 46
85 78 -2 21 -11 28 -48 39 -132 37 -155 47 -177 80 l-22 33 -3 -27 c-3 -25
-10 -30 -73 -49 l-70 -21 -13 -174 c-7 -96 -17 -179 -22 -184 -7 -7 -231 -66
-252 -66 -5 0 -8 77 -8 170 0 129 -3 170 -12 170 -7 0 -38 -7 -68 -15 -30 -8
-58 -15 -62 -15 -5 0 -8 39 -9 88 l-1 87 -39 -225 c-22 -124 -42 -240 -46
-258 -7 -42 -23 -48 -138 -56 -50 -4 -105 -9 -123 -12 l-34 -5 7 43 c3 24 9
51 12 62 5 19 -5 19 -70 0 -13 -4 -20 3 -28 25 -14 38 -25 39 -34 4 -3 -16
-13 -52 -22 -82 l-15 -54 -149 5 c-82 3 -151 7 -153 9 -3 2 14 65 36 139 21
74 54 198 72 275 l32 140 162 3 163 2 -7 -27 c-4 -16 -24 -92 -45 -170 -22
-78 -39 -145 -39 -148 0 -8 107 -1 115 7 3 3 14 81 23 174 l17 169 55 8 c316
46 527 94 715 161 55 20 103 36 108 36 4 0 7 -35 8 -77 l0 -78 13 47 c33 121
122 194 376 306 14 6 26 11 27 11 1 1 17 -45 34 -101z m-3693 -363 c72 -46
142 -90 156 -96 14 -7 26 -15 25 -18 0 -7 -137 -119 -276 -226 -57 -43 -103
-81 -103 -85 0 -4 47 -31 105 -61 l106 -54 -59 -29 -59 -29 -139 87 c-76 48
-181 118 -232 155 l-93 68 133 106 c73 58 171 141 218 186 47 44 86 80 87 81
1 0 60 -38 131 -85z m1810 63 c45 -6 82 -15 82 -20 0 -9 -38 -184 -45 -209 -4
-13 -14 -14 -65 -5 -121 20 -251 -24 -280 -94 -24 -57 12 -105 91 -124 26 -6
28 -3 46 67 11 39 22 71 24 70 2 0 50 -4 107 -8 56 -4 102 -9 102 -10 0 -1
-24 -54 -54 -118 -37 -78 -61 -117 -75 -122 -26 -8 -202 11 -278 31 -86 22
-176 69 -216 114 -69 75 -69 154 -1 258 97 148 294 208 562 170z m-1288 -340
c213 -94 291 -144 343 -220 56 -83 18 -181 -90 -234 -53 -27 -67 -29 -168 -29
-93 1 -121 5 -182 27 l-71 25 -38 -38 c-21 -22 -44 -39 -51 -39 -17 0 -293
141 -293 149 0 3 46 56 101 116 56 61 140 156 187 213 71 85 89 101 106 96 12
-4 82 -33 156 -66z m2920 -115 c0 -5 5 -37 10 -73 5 -36 10 -85 12 -109 2 -44
2 -44 -41 -57 -45 -13 -76 -36 -93 -68 -9 -16 -2 -26 42 -67 52 -47 53 -49 47
-95 -4 -37 -13 -54 -47 -89 -24 -24 -69 -58 -101 -75 -61 -32 -192 -70 -244
-70 -29 0 -32 4 -47 49 l-15 49 57 6 c91 10 152 62 120 101 -6 8 -47 26 -90
40 -46 15 -92 39 -110 55 -26 24 -30 35 -30 78 0 127 157 238 440 311 87 23
90 23 90 14z m-2257 -125 c95 -23 174 -43 176 -45 5 -3 -41 -81 -121 -202 -37
-57 -66 -106 -64 -109 6 -6 138 -33 142 -29 2 1 32 75 68 162 52 128 69 160
83 158 10 -1 72 -9 138 -17 65 -9 134 -16 151 -16 18 0 36 -4 39 -10 3 -5 -53
-127 -126 -271 l-133 -261 -55 7 c-69 8 -252 43 -258 49 -2 2 7 27 21 55 l26
51 -54 0 -54 0 -8 47 -9 47 -53 -81 -53 -81 -37 10 c-103 27 -278 81 -285 87
-4 4 33 73 83 152 49 79 114 188 143 241 28 54 56 98 60 98 5 0 86 -19 180
-42z m1717 -48 c0 -20 -96 -530 -106 -563 -7 -22 6 -25 -233 64 -101 38 -187
66 -191 64 -4 -3 -11 -17 -15 -32 -3 -16 -15 -58 -27 -95 l-20 -68 -99 0 c-54
0 -99 4 -99 9 0 5 15 73 34 152 19 79 45 200 57 269 12 69 26 128 31 131 5 3
68 9 139 13 l129 6 91 -51 c50 -28 92 -49 95 -47 2 3 7 32 10 66 4 34 7 62 8
62 2 1 181 38 189 39 4 0 7 -8 7 -19z m-702 -75 c7 -6 -185 -510 -207 -543 -7
-12 -37 -12 -177 -2 -93 7 -170 13 -172 15 -2 1 36 119 83 261 48 143 88 265
91 272 3 11 41 12 191 6 104 -4 189 -8 191 -9z"/>
<path d="M6008 6948 c-56 -52 -73 -112 -73 -253 0 -110 2 -124 27 -171 32 -61
52 -78 92 -80 108 -6 173 112 164 299 -4 108 -33 177 -88 215 -46 31 -81 28
-122 -10z"/>
<path d="M1260 3811 c-33 -33 -34 -51 -4 -98 33 -53 162 -84 198 -47 31 30 14
95 -38 143 -17 16 -41 25 -75 29 -46 4 -53 2 -81 -27z"/>
<path d="M2415 3040 c27 -27 50 -50 50 -50 4 0 65 89 65 94 0 3 -37 6 -82 6
l-82 0 49 -50z"/>
<path d="M1840 2856 c-113 -36 -120 -43 -72 -84 75 -64 165 -81 217 -40 23 18
26 27 22 55 -6 35 -43 104 -55 102 -4 0 -54 -16 -112 -33z"/>
<path d="M2370 2327 c-82 -21 -116 -99 -65 -147 51 -48 182 -34 219 23 21 32
9 66 -36 100 -40 30 -72 36 -118 24z"/>
<path d="M3716 2204 c-21 -25 -35 -48 -32 -51 3 -3 28 -8 56 -11 39 -4 55 -1
70 13 11 10 20 22 20 28 0 10 -58 67 -69 67 -4 0 -24 -21 -45 -46z"/>
<path d="M3600 1525 c-54 -55 -47 -67 43 -73 53 -3 65 -1 80 16 27 29 18 53
-28 79 -22 12 -42 23 -45 23 -3 0 -26 -20 -50 -45z"/>
<path d="M3367 7791 c3 -25 17 -63 30 -85 l24 -41 -6 35 c-4 19 -17 58 -30 85
l-24 50 6 -44z"/>
<path d="M1482 7557 c-63 -173 -67 -194 -66 -322 2 -156 17 -246 60 -375 62
-183 146 -318 285 -460 79 -80 149 -131 316 -229 76 -45 89 -55 168 -130 94
-88 568 -411 605 -411 18 0 19 -19 5 -61 -47 -132 -65 -690 -32 -971 19 -155
45 -235 157 -479 136 -297 219 -423 415 -628 88 -92 283 -271 293 -270 4 0 33
53 65 118 59 121 185 336 252 431 21 30 65 93 98 139 69 99 215 277 336 410
77 85 83 93 56 87 -78 -20 -272 -32 -495 -31 -272 2 -331 11 -467 76 -122 58
-249 210 -343 411 -34 73 -54 196 -44 273 11 90 102 315 169 420 19 30 35 59
35 64 0 6 -19 15 -42 21 -89 24 -328 125 -443 188 -186 102 -460 291 -590 407
-77 68 -195 155 -212 155 -4 0 -42 22 -83 48 -180 115 -353 324 -430 517 -55
138 -72 235 -73 405 -1 137 2 162 21 214 12 33 20 61 18 63 -2 2 -17 -34 -34
-80z"/>
<path d="M3453 7568 c3 -9 11 -45 17 -79 12 -64 8 -110 -16 -193 -8 -27 -13
-51 -11 -52 8 -8 97 33 97 44 0 56 -52 244 -77 277 -12 15 -14 16 -10 3z"/>
<path d="M7340 7391 c0 -41 -64 -189 -97 -224 -35 -37 -141 -106 -214 -139
-31 -14 -73 -42 -93 -61 l-36 -35 41 -72 c38 -65 43 -70 58 -56 9 8 41 26 71
40 89 39 207 122 234 163 14 21 40 72 58 113 41 96 45 191 10 258 -12 23 -25
42 -27 42 -3 0 -5 -13 -5 -29z"/>
<path d="M7070 6589 c0 -4 7 -22 15 -40 8 -19 14 -27 14 -19 0 14 -28 72 -29
59z"/>
<path d="M7100 6505 c0 -5 5 -17 10 -25 5 -8 10 -10 10 -5 0 6 -5 17 -10 25
-5 8 -10 11 -10 5z"/>
<path d="M7124 6445 c12 -58 31 -115 39 -115 5 0 6 11 3 24 -8 31 -48 117 -42
91z"/>
<path d="M9003 5493 c3 -5 11 -64 16 -131 9 -99 8 -134 -4 -192 -17 -83 -83
-254 -123 -322 -44 -75 -141 -177 -224 -235 l-76 -53 45 -75 46 -74 41 28 c50
35 170 165 210 229 44 70 115 256 135 352 14 69 16 105 9 195 -8 109 -48 268
-71 282 -5 3 -7 2 -4 -4z"/>
<path d="M7361 5104 c0 -11 3 -14 6 -6 3 7 2 16 -1 19 -3 4 -6 -2 -5 -13z"/>
<path d="M7376 4970 c4 -58 10 -160 13 -227 l6 -122 83 46 83 45 -24 27 c-39
41 -129 207 -149 274 l-18 62 6 -105z"/>
</g>
</svg>
